<svg xmlns="http://www.w3.org/2000/svg" viewBox="0 0 24 24" fill="none">
  <defs>
    <linearGradient id="orangeGrad" x1="0%" y1="0%" x2="100%" y2="100%">
      <stop offset="0%" stop-color="#ea580c" />
      <stop offset="100%" stop-color="#fb923c" />
    </linearGradient>
  </defs>
  <rect x="2" y="2" width="20" height="20" rx="5.5" fill="url(#orangeGrad)" />
  <path d="M8.5 14.5A2.5 2.5 0 0 0 11 12c0-1.38-.5-2-1-3-1.072-2.143-.224-4.054 2-6 .5 2.5 2 4.9 4 6.5 2 1.6 3 3.5 3 5.5a7 7 0 1 1-14 0c0-1.153.433-2.294 1-3a2.5 2.5 0 0 0 2.5 2.5z" fill="#09090b" stroke="#09090b" stroke-width="0.5" stroke-linejoin="round" />
</svg>
